# xmcd
#
# Track frame offsets:
#	150
#	14366
#	28843
#	43514
#	59624
#	73725
#	87013
#	102723
#	117112
#	129318
#	142794
#	157189
#
# Disc length: 2271 seconds
#
# Revision: 0
# Processed by: cddbd v1.5.2PL0 Copyright (c) Steve Scherf et al.
# Submitted via: audiograbber 1.83.01
#
DISCID=a408dd0c
DTITLE=Duke Ellington - The Best Of Duke Ellington
DYEAR=1900
DGENRE=Jazz
TTITLE0=East St. Louis Toodle-oo
TTITLE1=Black And Tan Fantasy
TTITLE2=Creole Love Call
TTITLE3=The Mooche
TTITLE4=Mood Indigo
TTITLE5=Rockin' In Rhythm
TTITLE6=Echoes Of The Jungle
TTITLE7=Harlem Speaks
TTITLE8=Caravan
TTITLE9=Conga Brava
TTITLE10=Cotton Tail
TTITLE11=Take The ?A? Train
EXTD=
EXTT0=
EXTT1=
EXTT2=
EXTT3=
EXTT4=
EXTT5=
EXTT6=
EXTT7=
EXTT8=
EXTT9=
EXTT10=
EXTT11=
PLAYORDER=
